<?xml version="1.0" encoding="UTF-8"?>
<svg width="500" height="400" viewBox="0 0 500 400" fill="none" xmlns="http://www.w3.org/2000/svg">
  <!-- Background Circle -->
  <circle cx="250" cy="200" r="180" fill="#E3F2FD" opacity="0.5"/>
  
  <!-- Wallet Icon -->
  <path d="M200 150h100c20 0 40 20 40 40v60c0 20-20 40-40 40H200c-20 0-40-20-40-40v-60c0-20 20-40 40-40z" fill="#1976D2"/>
  <path d="M200 170h100v20H200v-20z" fill="#64B5F6"/>
  
  <!-- Money Icon -->
  <circle cx="250" cy="200" r="30" fill="#FFC107"/>
  <text x="250" y="210" text-anchor="middle" fill="#000" font-size="20">$</text>
  
  <!-- Chart Lines -->
  <path d="M100 300h300" stroke="#1976D2" stroke-width="2"/>
  <path d="M100 300l50-50 50 50 50-50 50 50 50-50" stroke="#64B5F6" stroke-width="2" fill="none"/>
  
  <!-- Decorative Elements -->
  <circle cx="100" cy="100" r="10" fill="#FF4081"/>
  <circle cx="400" cy="300" r="15" fill="#4CAF50"/>
  <circle cx="150" cy="350" r="8" fill="#FFC107"/>
</svg> 